<svg xmlns="http://www.w3.org/2000/svg" xmlns:xlink="http://www.w3.org/1999/xlink" width="1080" zoomAndPan="magnify" viewBox="0 0 810 809.999993" height="1080" preserveAspectRatio="xMidYMid meet" version="1.0"><defs><g/><clipPath id="66284c9120"><path d="M 39.21875 288.425781 L 328.71875 288.425781 L 328.71875 449 L 39.21875 449 Z M 39.21875 288.425781 " clip-rule="nonzero"/></clipPath><clipPath id="0ddd519f03"><path d="M 57 423 L 311 423 L 311 583.175781 L 57 583.175781 Z M 57 423 " clip-rule="nonzero"/></clipPath></defs><g clip-path="url(#66284c9120)"><path fill="#09255b" d="M 70.394531 407.492188 C 66.472656 394.4375 63.457031 380.824219 61.421875 366.972656 C 71 365.550781 82.074219 362.511719 94.398438 357.914062 C 107.8125 352.90625 122.929688 346 139.332031 337.382812 C 158.878906 327.113281 175.816406 316.707031 183.925781 311.578125 C 183.941406 311.589844 183.957031 311.597656 183.96875 311.605469 C 183.984375 311.597656 184 311.589844 184.011719 311.578125 C 192.125 316.707031 209.058594 327.113281 228.605469 337.382812 C 245.011719 346 260.128906 352.90625 273.542969 357.914062 C 285.867188 362.511719 296.9375 365.550781 306.519531 366.972656 C 304.484375 380.824219 301.46875 394.4375 297.542969 407.492188 C 293.316406 421.558594 287.925781 435.332031 281.519531 448.46875 C 318.289062 408.652344 328.71875 349.0625 328.71875 349.0625 L 317.777344 348.933594 C 300.421875 348.730469 272.941406 339.007812 238.304688 320.820312 C 211.480469 306.734375 189.902344 292.496094 189.6875 292.355469 L 184.011719 288.597656 L 183.96875 288.625 L 183.925781 288.597656 L 178.253906 292.355469 C 178.039062 292.496094 156.457031 306.734375 129.636719 320.820312 C 95 339.007812 67.515625 348.730469 50.164062 348.933594 L 39.21875 349.0625 C 39.21875 349.0625 49.648438 408.652344 86.421875 448.46875 C 80.011719 435.332031 74.625 421.558594 70.394531 407.492188 " fill-opacity="1" fill-rule="nonzero"/></g><g clip-path="url(#0ddd519f03)"><path fill="#09255b" d="M 184.011719 559.570312 C 184 559.5625 183.984375 559.550781 183.96875 559.542969 C 183.957031 559.550781 183.941406 559.5625 183.925781 559.570312 C 121.199219 519.414062 67.664062 438.804688 57.414062 423.375 C 60.914062 433.355469 64.894531 443.136719 69.316406 452.617188 C 81.492188 478.738281 97.183594 503.078125 115.953125 524.96875 C 132.664062 544.457031 148.789062 558.367188 159.378906 566.609375 C 171.027344 575.679688 178.738281 580.101562 179.0625 580.285156 L 183.925781 583.0625 L 183.96875 583.035156 L 184.011719 583.0625 L 188.878906 580.285156 C 189.203125 580.101562 196.914062 575.679688 208.5625 566.609375 C 219.152344 558.367188 235.277344 544.457031 251.988281 524.96875 C 270.757812 503.078125 286.449219 478.738281 298.625 452.617188 C 303.042969 443.136719 307.023438 433.355469 310.527344 423.375 C 300.277344 438.804688 246.742188 519.414062 184.011719 559.570312 " fill-opacity="1" fill-rule="nonzero"/></g><g fill="#09255b" fill-opacity="1"><g transform="translate(307.941139, 456.364689)"><g><path d="M 37.65625 0 L 37.09375 -10.03125 L 31.390625 -10.03125 L 30.828125 0 L 1.3125 0 C 1.9375 -10.238281 3.21875 -20.742188 5.15625 -31.515625 C 7.09375 -42.296875 8.875 -50.53125 10.5 -56.21875 L 12.828125 -64.734375 L 57.25 -64.734375 C 57.9375 -62.484375 58.804688 -59.359375 59.859375 -55.359375 C 60.921875 -51.367188 62.484375 -43.703125 64.546875 -32.359375 C 66.609375 -21.023438 68.015625 -10.238281 68.765625 0 Z M 32.796875 -33.265625 L 32.046875 -18.640625 L 36.4375 -18.640625 L 35.78125 -33.265625 Z M 32.796875 -33.265625 "/></g></g></g><g fill="#09255b" fill-opacity="1"><g transform="translate(378.008042, 456.364689)"><g><path d="M 81.609375 0 L 48.25 0 L 46.75 -17.796875 L 44.78125 -17.796875 L 43.375 0 L 10.5 0 L 1.3125 -64.734375 L 29.890625 -64.734375 L 32.328125 -34.015625 L 34.296875 -34.015625 L 36.53125 -63.140625 L 55.46875 -63.140625 L 58 -34.015625 L 60.046875 -34.015625 L 62.390625 -64.734375 L 90.59375 -64.734375 Z M 81.609375 0 "/></g></g></g><g fill="#09255b" fill-opacity="1"><g transform="translate(469.90061, 456.364689)"><g><path d="M 2.71875 -64.734375 L 36.53125 -64.734375 C 46.96875 -64.734375 54.945312 -62.234375 60.46875 -57.234375 C 66 -52.242188 68.765625 -44.097656 68.765625 -32.796875 C 68.765625 -10.929688 57.582031 0 35.21875 0 L 2.71875 0 Z M 34.203125 -37.46875 L 34.203125 -21.265625 L 36.8125 -21.265625 C 37.5625 -21.265625 38.203125 -21.515625 38.734375 -22.015625 C 39.265625 -22.515625 39.53125 -23.171875 39.53125 -23.984375 L 39.53125 -34.859375 C 39.53125 -35.597656 39.265625 -36.21875 38.734375 -36.71875 C 38.203125 -37.21875 37.5625 -37.46875 36.8125 -37.46875 Z M 34.203125 -37.46875 "/></g></g></g><g fill="#09255b" fill-opacity="1"><g transform="translate(541.278936, 456.364689)"><g><path d="M 2.71875 -64.734375 L 31.390625 -64.734375 L 37.28125 -45.4375 L 37.28125 -64.734375 L 66.140625 -64.734375 L 66.140625 0 L 37.28125 0 L 32.328125 -18.921875 L 32.328125 0 L 2.71875 0 Z M 2.71875 -64.734375 "/></g></g></g><g fill="#09255b" fill-opacity="1"><g transform="translate(610.128111, 456.364689)"><g><path d="M 37.65625 0 L 37.09375 -10.03125 L 31.390625 -10.03125 L 30.828125 0 L 1.3125 0 C 1.9375 -10.238281 3.21875 -20.742188 5.15625 -31.515625 C 7.09375 -42.296875 8.875 -50.53125 10.5 -56.21875 L 12.828125 -64.734375 L 57.25 -64.734375 C 57.9375 -62.484375 58.804688 -59.359375 59.859375 -55.359375 C 60.921875 -51.367188 62.484375 -43.703125 64.546875 -32.359375 C 66.609375 -21.023438 68.015625 -10.238281 68.765625 0 Z M 32.796875 -33.265625 L 32.046875 -18.640625 L 36.4375 -18.640625 L 35.78125 -33.265625 Z M 32.796875 -33.265625 "/></g></g></g><g fill="#09255b" fill-opacity="1"><g transform="translate(680.195014, 456.364689)"><g><path d="M 38.875 -35.5 L 38.875 -64.734375 L 69.703125 -64.734375 L 69.703125 0 L 38.875 0 L 38.875 -21.828125 L 33.453125 -21.828125 L 33.453125 0 L 2.71875 0 L 2.71875 -64.734375 L 33.453125 -64.734375 L 33.453125 -35.5 Z M 38.875 -35.5 "/></g></g></g><g fill="#09255b" fill-opacity="1"><g transform="translate(131.090611, 496.614799)"><g><path d="M 56.347656 -71.269531 L 58.898438 -69.894531 C 54.382812 -56.347656 62.238281 -40.835938 74.410156 -34.160156 C 93.648438 -23.953125 119.957031 -32.984375 132.128906 -49.867188 C 148.425781 -71.269531 144.5 -105.035156 125.652344 -123.292969 C 114.65625 -134.484375 98.949219 -139.394531 83.636719 -139.394531 L -0.195312 -139.394531 L -0.195312 0 L 82.066406 0 L 82.066406 -27.878906 C 79.121094 -29.058594 76.371094 -29.84375 73.230469 -31.804688 C 58.898438 -38.875 51.046875 -55.757812 56.347656 -71.269531 Z M 56.347656 -71.269531 "/></g></g></g><g fill="#09255b" fill-opacity="1"><g transform="translate(320.554675, 511.957914)"><g><path d="M 2.265625 -29.15625 L 8.609375 -29.15625 C 11.742188 -29.15625 13.96875 -28.4375 15.28125 -27 C 16.59375 -25.5625 17.25 -23.316406 17.25 -20.265625 L 17.25 -9.546875 C 17.25 -6.328125 16.601562 -3.929688 15.3125 -2.359375 C 14.03125 -0.785156 11.898438 0 8.921875 0 L 2.265625 0 Z M 8.640625 -2.921875 C 10.054688 -2.921875 11.082031 -3.195312 11.71875 -3.75 C 12.351562 -4.300781 12.75 -5.050781 12.90625 -6 C 13.0625 -6.945312 13.140625 -8.378906 13.140625 -10.296875 L 13.140625 -19.765625 C 13.140625 -21.421875 13.035156 -22.6875 12.828125 -23.5625 C 12.628906 -24.4375 12.203125 -25.082031 11.546875 -25.5 C 10.898438 -25.925781 9.894531 -26.140625 8.53125 -26.140625 L 6.34375 -26.140625 L 6.34375 -2.921875 Z M 8.640625 -2.921875 "/></g></g></g><g fill="#09255b" fill-opacity="1"><g transform="translate(339.526712, 511.957914)"><g><path d="M 7.703125 0.28125 C 6.097656 0.28125 4.847656 -0.0195312 3.953125 -0.625 C 3.066406 -1.238281 2.441406 -2.144531 2.078125 -3.34375 C 1.722656 -4.539062 1.546875 -6.101562 1.546875 -8.03125 L 1.546875 -12.78125 C 1.546875 -15.65625 1.992188 -17.757812 2.890625 -19.09375 C 3.796875 -20.425781 5.398438 -21.09375 7.703125 -21.09375 C 9.378906 -21.09375 10.644531 -20.742188 11.5 -20.046875 C 12.351562 -19.359375 12.914062 -18.382812 13.1875 -17.125 C 13.46875 -15.863281 13.609375 -14.164062 13.609375 -12.03125 L 13.609375 -10.328125 L 5.40625 -10.328125 L 5.40625 -6.15625 C 5.40625 -4.882812 5.585938 -3.96875 5.953125 -3.40625 C 6.328125 -2.84375 6.921875 -2.5625 7.734375 -2.5625 C 8.554688 -2.5625 9.109375 -2.84375 9.390625 -3.40625 C 9.679688 -3.96875 9.828125 -4.820312 9.828125 -5.96875 L 9.828125 -7.234375 L 13.578125 -7.234375 L 13.578125 -6.4375 C 13.578125 -4.257812 13.109375 -2.59375 12.171875 -1.4375 C 11.234375 -0.289062 9.742188 0.28125 7.703125 0.28125 Z M 9.828125 -12.421875 L 9.828125 -14.296875 C 9.828125 -15.710938 9.6875 -16.722656 9.40625 -17.328125 C 9.132812 -17.941406 8.554688 -18.25 7.671875 -18.25 C 7.046875 -18.25 6.570312 -18.101562 6.25 -17.8125 C 5.925781 -17.53125 5.703125 -17.054688 5.578125 -16.390625 C 5.460938 -15.734375 5.40625 -14.78125 5.40625 -13.53125 L 5.40625 -12.421875 Z M 9.828125 -12.421875 "/></g></g></g><g fill="#09255b" fill-opacity="1"><g transform="translate(354.68274, 511.957914)"><g><path d="M 3.171875 -17.96875 L 0.6875 -17.96875 L 0.6875 -20.8125 L 3.171875 -20.8125 L 3.171875 -21.890625 C 3.171875 -23.328125 3.273438 -24.484375 3.484375 -25.359375 C 3.703125 -26.234375 4.140625 -26.910156 4.796875 -27.390625 C 5.460938 -27.867188 6.421875 -28.109375 7.671875 -28.109375 C 8.503906 -28.109375 9.34375 -28.023438 10.1875 -27.859375 L 10.1875 -25.0625 C 9.707031 -25.175781 9.226562 -25.234375 8.75 -25.234375 C 8.050781 -25.234375 7.585938 -25.007812 7.359375 -24.5625 C 7.128906 -24.125 7.015625 -23.445312 7.015625 -22.53125 L 7.015625 -20.8125 L 10.1875 -20.8125 L 10.1875 -17.96875 L 7.015625 -17.96875 L 7.015625 0 L 3.171875 0 Z M 3.171875 -17.96875 "/></g></g></g><g fill="#09255b" fill-opacity="1"><g transform="translate(365.014763, 511.957914)"><g><path d="M 2.203125 -27.9375 L 6.046875 -27.9375 L 6.046875 -23.90625 L 2.203125 -23.90625 Z M 2.203125 -20.8125 L 6.046875 -20.8125 L 6.046875 0 L 2.203125 0 Z M 2.203125 -20.8125 "/></g></g></g><g fill="#09255b" fill-opacity="1"><g transform="translate(373.258777, 511.957914)"><g/></g></g><g fill="#09255b" fill-opacity="1"><g transform="translate(381.502791, 511.957914)"><g><path d="M 9.140625 0.328125 C 6.691406 0.328125 4.828125 -0.425781 3.546875 -1.9375 C 2.265625 -3.457031 1.550781 -5.535156 1.40625 -8.171875 L 5 -9.140625 C 5.125 -7.273438 5.488281 -5.765625 6.09375 -4.609375 C 6.707031 -3.453125 7.722656 -2.875 9.140625 -2.875 C 10.203125 -2.875 11 -3.164062 11.53125 -3.75 C 12.070312 -4.34375 12.34375 -5.191406 12.34375 -6.296875 C 12.34375 -7.492188 12.09375 -8.488281 11.59375 -9.28125 C 11.09375 -10.070312 10.289062 -10.953125 9.1875 -11.921875 L 4.28125 -16.234375 C 3.300781 -17.097656 2.585938 -18.023438 2.140625 -19.015625 C 1.691406 -20.015625 1.46875 -21.238281 1.46875 -22.6875 C 1.46875 -24.820312 2.078125 -26.472656 3.296875 -27.640625 C 4.523438 -28.816406 6.195312 -29.40625 8.3125 -29.40625 C 10.613281 -29.40625 12.351562 -28.789062 13.53125 -27.5625 C 14.707031 -26.34375 15.414062 -24.453125 15.65625 -21.890625 L 12.203125 -20.953125 C 12.085938 -22.660156 11.757812 -23.972656 11.21875 -24.890625 C 10.675781 -25.816406 9.707031 -26.28125 8.3125 -26.28125 C 7.28125 -26.28125 6.488281 -26.007812 5.9375 -25.46875 C 5.382812 -24.925781 5.109375 -24.128906 5.109375 -23.078125 C 5.109375 -22.210938 5.25 -21.484375 5.53125 -20.890625 C 5.820312 -20.304688 6.316406 -19.710938 7.015625 -19.109375 L 11.953125 -14.796875 C 13.222656 -13.671875 14.234375 -12.445312 14.984375 -11.125 C 15.742188 -9.800781 16.125 -8.300781 16.125 -6.625 C 16.125 -4.488281 15.472656 -2.796875 14.171875 -1.546875 C 12.878906 -0.296875 11.203125 0.328125 9.140625 0.328125 Z M 9.140625 0.328125 "/></g></g></g><g fill="#09255b" fill-opacity="1"><g transform="translate(398.530821, 511.957914)"><g><path d="M 2.203125 -27.9375 L 6.046875 -27.9375 L 6.046875 -23.90625 L 2.203125 -23.90625 Z M 2.203125 -20.8125 L 6.046875 -20.8125 L 6.046875 0 L 2.203125 0 Z M 2.203125 -20.8125 "/></g></g></g><g fill="#09255b" fill-opacity="1"><g transform="translate(406.774836, 511.957914)"><g><path d="M 1.9375 -20.8125 L 5.515625 -20.8125 L 5.515625 -18.828125 C 6.203125 -19.597656 6.957031 -20.179688 7.78125 -20.578125 C 8.613281 -20.972656 9.488281 -21.171875 10.40625 -21.171875 C 12.175781 -21.171875 13.300781 -20.296875 13.78125 -18.546875 C 15.226562 -20.296875 16.957031 -21.171875 18.96875 -21.171875 C 20.050781 -21.171875 20.929688 -20.773438 21.609375 -19.984375 C 22.296875 -19.191406 22.640625 -17.976562 22.640625 -16.34375 L 22.640625 0 L 19.109375 0 L 19.109375 -16.09375 C 19.109375 -17.050781 18.953125 -17.710938 18.640625 -18.078125 C 18.335938 -18.453125 17.894531 -18.640625 17.3125 -18.640625 C 16.789062 -18.640625 16.238281 -18.488281 15.65625 -18.1875 C 15.082031 -17.894531 14.554688 -17.484375 14.078125 -16.953125 L 14.078125 0 L 10.546875 0 L 10.546875 -16.09375 C 10.546875 -17.050781 10.390625 -17.710938 10.078125 -18.078125 C 9.765625 -18.453125 9.320312 -18.640625 8.75 -18.640625 C 8.238281 -18.640625 7.695312 -18.488281 7.125 -18.1875 C 6.550781 -17.894531 6.015625 -17.484375 5.515625 -16.953125 L 5.515625 0 L 1.9375 0 Z M 1.9375 -20.8125 "/></g></g></g><g fill="#09255b" fill-opacity="1"><g transform="translate(431.254879, 511.957914)"><g><path d="M 1.9375 -20.8125 L 5.796875 -20.8125 L 5.796875 -19.15625 C 6.921875 -20.445312 8.238281 -21.09375 9.75 -21.09375 C 11.644531 -21.09375 12.910156 -20.28125 13.546875 -18.65625 C 14.191406 -17.039062 14.515625 -15.25 14.515625 -13.28125 L 14.515625 -8.25 C 14.515625 -5.695312 14.125 -3.632812 13.34375 -2.0625 C 12.5625 -0.5 11.222656 0.28125 9.328125 0.28125 C 8.097656 0.28125 6.921875 -0.328125 5.796875 -1.546875 L 5.796875 6.84375 L 1.9375 6.84375 Z M 8.5625 -2.734375 C 9.457031 -2.734375 10.03125 -3.179688 10.28125 -4.078125 C 10.53125 -4.984375 10.65625 -6.375 10.65625 -8.25 L 10.65625 -13.28125 C 10.65625 -14.820312 10.507812 -16.003906 10.21875 -16.828125 C 9.9375 -17.660156 9.335938 -18.078125 8.421875 -18.078125 C 7.535156 -18.078125 6.660156 -17.710938 5.796875 -16.984375 L 5.796875 -3.671875 C 6.640625 -3.046875 7.5625 -2.734375 8.5625 -2.734375 Z M 8.5625 -2.734375 "/></g></g></g><g fill="#09255b" fill-opacity="1"><g transform="translate(447.310917, 511.957914)"><g><path d="M 2.296875 -29.15625 L 6.15625 -29.15625 L 6.15625 0 L 2.296875 0 Z M 2.296875 -29.15625 "/></g></g></g><g fill="#09255b" fill-opacity="1"><g transform="translate(455.554931, 511.957914)"><g><path d="M 2.203125 -27.9375 L 6.046875 -27.9375 L 6.046875 -23.90625 L 2.203125 -23.90625 Z M 2.203125 -20.8125 L 6.046875 -20.8125 L 6.046875 0 L 2.203125 0 Z M 2.203125 -20.8125 "/></g></g></g><g fill="#09255b" fill-opacity="1"><g transform="translate(463.798946, 511.957914)"><g><path d="M 3.171875 -17.96875 L 0.6875 -17.96875 L 0.6875 -20.8125 L 3.171875 -20.8125 L 3.171875 -21.890625 C 3.171875 -23.328125 3.273438 -24.484375 3.484375 -25.359375 C 3.703125 -26.234375 4.140625 -26.910156 4.796875 -27.390625 C 5.460938 -27.867188 6.421875 -28.109375 7.671875 -28.109375 C 8.503906 -28.109375 9.34375 -28.023438 10.1875 -27.859375 L 10.1875 -25.0625 C 9.707031 -25.175781 9.226562 -25.234375 8.75 -25.234375 C 8.050781 -25.234375 7.585938 -25.007812 7.359375 -24.5625 C 7.128906 -24.125 7.015625 -23.445312 7.015625 -22.53125 L 7.015625 -20.8125 L 10.1875 -20.8125 L 10.1875 -17.96875 L 7.015625 -17.96875 L 7.015625 0 L 3.171875 0 Z M 3.171875 -17.96875 "/></g></g></g><g fill="#09255b" fill-opacity="1"><g transform="translate(474.130969, 511.957914)"><g><path d="M 2.203125 -27.9375 L 6.046875 -27.9375 L 6.046875 -23.90625 L 2.203125 -23.90625 Z M 2.203125 -20.8125 L 6.046875 -20.8125 L 6.046875 0 L 2.203125 0 Z M 2.203125 -20.8125 "/></g></g></g><g fill="#09255b" fill-opacity="1"><g transform="translate(482.374983, 511.957914)"><g><path d="M 7.703125 0.28125 C 6.097656 0.28125 4.847656 -0.0195312 3.953125 -0.625 C 3.066406 -1.238281 2.441406 -2.144531 2.078125 -3.34375 C 1.722656 -4.539062 1.546875 -6.101562 1.546875 -8.03125 L 1.546875 -12.78125 C 1.546875 -15.65625 1.992188 -17.757812 2.890625 -19.09375 C 3.796875 -20.425781 5.398438 -21.09375 7.703125 -21.09375 C 9.378906 -21.09375 10.644531 -20.742188 11.5 -20.046875 C 12.351562 -19.359375 12.914062 -18.382812 13.1875 -17.125 C 13.46875 -15.863281 13.609375 -14.164062 13.609375 -12.03125 L 13.609375 -10.328125 L 5.40625 -10.328125 L 5.40625 -6.15625 C 5.40625 -4.882812 5.585938 -3.96875 5.953125 -3.40625 C 6.328125 -2.84375 6.921875 -2.5625 7.734375 -2.5625 C 8.554688 -2.5625 9.109375 -2.84375 9.390625 -3.40625 C 9.679688 -3.96875 9.828125 -4.820312 9.828125 -5.96875 L 9.828125 -7.234375 L 13.578125 -7.234375 L 13.578125 -6.4375 C 13.578125 -4.257812 13.109375 -2.59375 12.171875 -1.4375 C 11.234375 -0.289062 9.742188 0.28125 7.703125 0.28125 Z M 9.828125 -12.421875 L 9.828125 -14.296875 C 9.828125 -15.710938 9.6875 -16.722656 9.40625 -17.328125 C 9.132812 -17.941406 8.554688 -18.25 7.671875 -18.25 C 7.046875 -18.25 6.570312 -18.101562 6.25 -17.8125 C 5.925781 -17.53125 5.703125 -17.054688 5.578125 -16.390625 C 5.460938 -15.734375 5.40625 -14.78125 5.40625 -13.53125 L 5.40625 -12.421875 Z M 9.828125 -12.421875 "/></g></g></g><g fill="#09255b" fill-opacity="1"><g transform="translate(497.531011, 511.957914)"><g><path d="M 6.765625 0.28125 C 4.960938 0.28125 3.640625 -0.367188 2.796875 -1.671875 C 1.960938 -2.984375 1.546875 -5.148438 1.546875 -8.171875 L 1.546875 -12.203125 C 1.546875 -14.960938 1.910156 -17.132812 2.640625 -18.71875 C 3.378906 -20.300781 4.71875 -21.09375 6.65625 -21.09375 C 7.882812 -21.09375 9.035156 -20.550781 10.109375 -19.46875 L 10.109375 -29.15625 L 13.96875 -29.15625 L 13.96875 0 L 10.109375 0 L 10.109375 -1.328125 C 9.109375 -0.253906 7.992188 0.28125 6.765625 0.28125 Z M 7.734375 -2.734375 C 8.503906 -2.734375 9.296875 -3 10.109375 -3.53125 L 10.109375 -17.171875 C 9.222656 -17.773438 8.410156 -18.078125 7.671875 -18.078125 C 6.160156 -18.078125 5.40625 -16.625 5.40625 -13.71875 L 5.40625 -7.84375 C 5.40625 -6.164062 5.5625 -4.894531 5.875 -4.03125 C 6.1875 -3.164062 6.804688 -2.734375 7.734375 -2.734375 Z M 7.734375 -2.734375 "/></g></g></g></svg>